PathFileType	4	(X/Y/Z)	C:\Users\willi\Desktop\Data_PaperCallum_v2\17_Akif\Gait03\marker_experimental_temp.trc
DataRate	CameraRate	NumFrames	NumMarkers	Units	OrigDataRate	OrigDataStartFrame	OrigNumFrames
100.000000	100.000000	6	27	mm	100.000000	59	158
Frame#	Time	C7			T10			Clav			Sternum			Right_Back			PCL_CRAN			PCL_RECHTS			PCL_LINKS			RCL_UL_CRAN			RCL_UL_POST			RCL_UL_ANT			RCL_LL_CRAN			RCL_LL_POST			RCL_LL_ANT			Right_Heel			Right_Toe			Right_M5			LCL_UL_CRAN			LCL_UL_POST			LCL_UL_ANT			LCL_LL_CRAN			LCL_LL_POST			LCL_LL_ANT			Left_Heel			Left_Toe			Left_M5			*26			
		X1	Y1	Z1	X2	Y2	Z2	X3	Y3	Z3	X4	Y4	Z4	X5	Y5	Z5	X6	Y6	Z6	X7	Y7	Z7	X8	Y8	Z8	X9	Y9	Z9	X10	Y10	Z10	X11	Y11	Z11	X12	Y12	Z12	X13	Y13	Z13	X14	Y14	Z14	X15	Y15	Z15	X16	Y16	Z16	X17	Y17	Z17	X18	Y18	Z18	X19	Y19	Z19	X20	Y20	Z20	X21	Y21	Z21	X22	Y22	Z22	X23	Y23	Z23	X24	Y24	Z24	X25	Y25	Z25	X26	Y26	Z26	X27	Y27	Z27	

60	0.59	593.0770263671874	1378.690795898438	205.486328125	631.0823364257811	1159.435180664063	211.0830535888672	451.5863037109374	1303.926147460938	218.1712036132812	389.9375305175781	1141.62939453125	226.5255584716797	623.2706298828124	1314.331787109375	88.57323455810543	620.9878540039061	990.5403442382813	214.6186828613281	632.1583251953124	931.3048706054688	193.4456176757812	629.2988891601561	931.3744506835938	243.564208984375	580.537109375	703.0553588867188	42.18787002563473	613.5277099609375	647.4700927734375	49.19762039184567	565.2626953125	640.1166381835938	37.39992523193356	743.9026489257813	386.6981811523438	74.12422180175777	799.1727294921875	350.4113464355469	76.04380035400386	756.4563598632813	322.2832336425782	78.35311889648433	978.0234375	123.9362487792969	171.532974243164	814.8334350585938	30.05436897277837	182.2311706542968	863.5482177734375	13.47739219665533	127.5016708374023	445.0022583007812	729.77880859375	381.65625	437.5996093749999	665.017822265625	375.3661804199219	394.1671752929687	688.5442504882813	375.5435791015625	355.3248596191406	364.3305053710938	339.9142456054688	361.0384216308594	299.4490661621094	336.4923095703125	313.1123962402344	314.97314453125	335.8904418945313	339.7037658691406	24.08390998840334	252.0003662109375	138.2847442626953	51.9077491760254	256.0221252441406	177.4051361083985	17.77842712402345	311.4867248535156	-88.08840942382837	726.54443359375	-3209.99951171875	
61	0.6	577.7699584960936	1379.313842773438	207.0854949951172	615.2827148437499	1159.927368164063	211.9564056396484	436.0700988769531	1304.793212890625	218.8518676757812	373.8738403320312	1142.76025390625	226.5137481689453	608.5989990234374	1315.285888671875	90.28115844726558	604.6209106445311	991.5391235351563	214.5289459228515	615.7122802734374	932.1597900390625	193.7160339355468	612.9245605468749	932.5238037109375	243.844985961914	562.3220825195313	702.4159545898438	42.32177734374996	594.8992309570313	646.727294921875	48.72030258178707	546.5582275390625	639.7924194335938	36.9327354431152	725.42578125	387.2900695800782	71.18947601318355	782.178955078125	353.2038574218751	73.65552520751949	740.2476806640625	323.4899902343751	75.24198913574214	966.6372680664063	135.6433563232422	169.3559875488281	814.5489501953125	29.80175399780278	182.2076873779296	862.4288330078125	15.51733589172369	127.6789932250976	428.9028320312499	731.6674194335938	381.9624633789063	422.2693481445312	667.0448608398438	375.7744140625	378.5636291503906	690.291748046875	375.2410888671875	342.0109558105469	365.6186828613281	340.1851196289063	348.3306884765625	301.0825805664063	337.7573852539063	300.0074462890625	316.4928588867188	336.4346923828125	338.5965881347656	26.06195640563967	252.6519927978515	135.1853942871094	45.04957580566407	254.1679382324219	175.7174987792969	13.78425502777101	311.474853515625	-88.08736419677759	726.5418090820313	-3209.982421875	
62	0.61	562.4649658203124	1380.254638671875	208.6502532958984	599.5816040039061	1160.77490234375	212.8123321533203	420.5847473144531	1305.936645507813	219.4571075439453	357.9312133789062	1144.135375976563	226.4243621826172	593.9372558593749	1316.619873046875	91.94169616699214	588.4504394531249	992.822998046875	214.4968109130859	599.4684448242186	933.3113403320313	193.9945983886718	596.7313842773436	933.9393310546875	244.1379852294922	543.529296875	701.8289184570313	42.30945205688473	575.3885498046875	645.8545532226563	48.06050491333004	526.9281616210938	639.5415649414063	36.41371536254879	704.985595703125	387.5910034179688	67.93991851806636	763.0101928710938	355.5836486816407	70.95553588867183	721.8961791992188	324.3889465332032	71.79906463623043	953.044921875	148.039047241211	166.8968200683593	813.34375	30.12061882019048	182.0789947509765	859.8114013671875	18.82795715332037	127.4510955810546	413.3427429199218	733.6143188476563	382.485107421875	407.4909057617187	669.0485229492188	376.50390625	363.5184936523437	691.9815063476563	375.3873901367188	329.1420593261719	366.9246215820313	340.5200500488281	336.3331298828125	302.7518920898438	339.4126281738281	287.6985168457031	317.5631103515625	336.5364685058594	337.6244506835938	27.62883949279787	253.1950531005859	132.9132385253907	39.86130142211915	252.8936309814453	174.5456695556641	11.1779079437256	311.8886108398438	-88.0863418579104	726.5391845703125	-3209.9658203125	
63	0.62	547.1799316406249	1381.4931640625	210.1643524169922	584.0026245117186	1161.957397460938	213.66015625	405.1513061523437	1307.331665039063	219.9781646728515	342.1439514160156	1145.719848632813	226.2567443847656	579.3012695312499	1318.302612304688	93.53874969482419	572.5122070312499	994.3522338867188	214.5545501708984	583.4660034179686	934.7235107421875	194.3077087402343	580.7515258789061	935.5790405273438	244.4683380126953	524.2439575195313	701.3191528320313	42.12517166137692	555.050048828125	644.8300170898438	47.25647354125973	506.4555358886718	639.3724365234375	35.80217361450192	682.572509765625	387.5844726562501	64.44569396972652	741.5906372070313	357.3892211914063	67.93925476074214	701.3220825195313	324.9079895019532	68.18436431884761	937.32763671875	160.8727416992188	164.1061706542968	810.5995483398438	31.2894840240479	181.7069854736328	855.124755859375	23.60309219360357	126.6564788818359	398.3275146484374	735.5311279296875	383.1891174316406	393.1811218261718	670.9327392578125	377.3859558105469	348.9808044433593	693.5369873046875	375.93212890625	316.9542541503906	368.0722045898438	340.8851928710938	325.4538269042969	304.2494812011719	341.1488342285156	276.6580810546875	317.8028564453125	336.0219116210938	336.8424072265625	28.72217941284182	253.5575866699218	131.3457946777344	36.2751693725586	252.0243835449219	173.807861328125	9.775177955627452	312.4675598144531	-88.08532714843774	726.53662109375	-3209.94921875	
64	0.63	531.9334716796874	1383.003540039063	211.61328125	568.5643310546874	1163.446899414063	214.5084838867187	389.7901000976562	1308.950073242188	220.4084014892578	326.5404968261718	1147.47802734375	226.0137481689453	564.7089843749999	1320.293334960938	95.06095886230466	556.8310546874999	996.0858154296875	214.723648071289	567.7324218749999	936.35791015625	194.6739196777343	565.0089721679686	937.401123046875	244.8534240722656	504.5647888183593	700.9298095703125	41.7549018859863	533.9757690429688	643.6827392578125	46.37123489379879	485.2684020996093	639.3294677734375	35.06157684326169	658.2725219726563	387.3128662109376	60.80029296874996	717.9866333007813	358.5822448730469	64.59851837158199	678.58740234375	325.0657348632813	64.59128570556636	919.6553344726563	173.8408813476563	160.9919128417968	805.6334228515625	33.52363967895513	180.9194946289062	847.8574829101563	29.88124084472662	125.1798477172851	383.8529052734374	737.353759765625	384.0155334472656	379.2988586425781	672.6487426757813	378.2574462890625	334.9202575683593	694.9104614257813	376.7834777832031	305.7041320800781	368.9529724121094	341.2644348144531	315.9699096679688	305.4517822265625	342.6676025390625	267.1638793945313	317.1705017089844	334.9765625	336.2827758789063	29.37956619262697	253.7293090820312	130.3338012695313	34.05345535278321	251.4213562011719	173.4044036865235	9.275318145751964	313.0194702148438	-88.08433532714868	726.5341186523438	-3209.932861328125	
65	0.64	516.7437133789061	1384.755249023438	212.9846801757812	553.2800292968749	1165.208618164063	215.3641967773437	374.5203247070312	1310.760986328125	220.74365234375	311.1421813964843	1149.374755859375	225.7020568847656	550.1796264648436	1322.54296875	96.50183105468747	541.4205322265624	997.9837036132813	215.0132598876953	552.2831420898436	938.176513671875	195.1017608642578	549.5189208984374	939.3656005859375	245.30078125	484.5964050292968	700.7208251953125	41.19779968261716	512.3043212890625	642.5053100585938	45.46920013427732	463.5388488769531	639.4915771484375	34.16807556152341	632.2644653320313	386.8815002441407	57.10897445678707	692.4087524414063	359.2796936035157	60.92508697509761	653.8983154296875	324.9844360351563	61.19854736328121	900.2380981445313	186.6084899902344	157.644058227539	797.7974243164063	36.90373229980474	179.5380859374999	837.6331176757813	37.51214981079107	122.9798126220703	369.9104309082031	739.043212890625	384.8907470703125	365.8567199707031	674.1900024414063	378.9901733398438	321.3374328613281	696.080322265625	377.8265686035156	295.6250915527344	369.5319213867188	341.6445617675781	307.9917602539063	306.3180236816406	343.743896484375	259.269287109375	315.914794921875	333.7190856933594	335.9423828125	29.70042037963869	253.7393035888672	129.7242889404297	32.8658676147461	250.9887390136719	173.2308349609375	9.343950271606456	313.4376525878906	-88.08335876464868	726.5316772460938	-3209.9169921875	
